Screen Shot Link                 :

General
Complete name                    : Lock, Stock and Two Smoking Barrels [1998] BRrip [Ac3-5.1]{Multisubs} -=[CaLvIn]=-.avi
Imdb Link                        : http://www.imdb.com/title/tt0120735/
Format                           : AVI
Format/Info                      : Audio Video Interleave
File size                        : 1.35 GiB
Duration                         : 1h 47mn
Overall bit rate                 : 1 797 Kbps
Writing application              : VirtualDubMod 1.5.10.3 | www.virtualdub-fr.org || (build 2550/release)
Writing library                  : VirtualDubMod build 2550/release

Video
ID                               : 0
Format                           : MPEG-4 Visual
Format profile                   : Advanced Simple@L5
Format settings, BVOP            : 2
Format settings, QPel            : No
Format settings, GMC             : No warppoints
Format settings, Matrix          : Default (MPEG)
Codec ID                         : XVID
Codec ID/Hint                    : XviD
Duration                         : 1h 47mn
Bit rate                         : 1 147 Kbps
Width                            : 704 pixels
Height                           : 576 pixels
Display aspect ratio             : 16:9
Frame rate                       : 25.000 fps
Standard                         : PAL
Color space                      : YUV
Chroma subsampling               : 4:2:0
Bit depth                        : 8 bits
Scan type                        : Progressive
Compression mode                 : Lossy
Bits/(Pixel*Frame)               : 0.113
Stream size                      : 881 MiB (64%)
Writing library                  : XviD 1.1.2 (UTC 2006-11-01)

Audio
ID                               : 1
Format                           : AC-3
Format/Info                      : Audio Coding 3
Mode extension                   : CM (complete main)
Codec ID                         : 2000
Duration                         : 1h 47mn
Bit rate mode                    : Constant
Bit rate                         : 640 Kbps
Channel(s)                       : 6 channels
Channel positions                : Front: L C R, Side: L R, LFE
Sampling rate                    : 48.0 KHz
Bit depth                        : 16 bits
Compression mode                 : Lossy
Stream size                      : 492 MiB (36%)
Alignment                        : Split accross interleaves
Interleave, duration             : 40 ms (1.00 video frame)
Interleave, preload duration     : 500 ms

